<svg xmlns:xlink="http://www.w3.org/1999/xlink" xmlns="http://www.w3.org/2000/svg" viewBox="0 0 63.941 58.46"
    class="icon-shape" focusable="false" aria-role="image" aria-labelledby="icon-title-h5_9WmoJ0U" width="63.941"
    height="58.46">
    <defs>
        <clipPath class="a">
            <path d="M0 0h63.941v58.46H0z"></path>
        </clipPath>
    </defs>
    <g clip-path="url(#a)" fill="current">
        <path
            d="M15.335 58.46h-.005c-.4 0-.7-.13-1.46-.63-.1-.076-.225-.164-.412-.3a25.316 25.316 0 01-1.308-.974 34.186 34.186 0 01-5-4.94 32.273 32.273 0 01-4.92-8.2A30.03 30.03 0 010 32 31.942 31.942 0 0131.939 0h.088a31.943 31.943 0 0131.914 32 30.312 30.312 0 01-3.091 13.52 33.05 33.05 0 01-6.31 8.69 31.917 31.917 0 01-3.48 3c-1.65 1.24-2 1.24-2.309 1.24h-.8l-.82-1.34a17.3 17.3 0 00-30.2 0l-.41.679a1.389 1.389 0 01-1.186.671zm16.645-37.1a12.68 12.68 0 014.47 24.55 20.17 20.17 0 0112.72 9.17A31.131 31.131 0 0055 49.4 27.707 27.707 0 0061.14 32 29.17 29.17 0 102.8 32 27.717 27.717 0 009 49.4a30.828 30.828 0 005.8 5.68 20.12 20.12 0 0112.71-9.17 12.68 12.68 0 014.47-24.546zm-.02 2.806a9.88 9.88 0 00.02 19.76H32a9.88 9.88 0 00-.031-19.76z"
            fill="currnet"></path>
    </g>
</svg>